<?xml version="1.0" encoding="UTF-8" standalone="no"?>
<!-- Created with Inkscape (http://www.inkscape.org/) -->

<svg
   xmlns:dc="http://purl.org/dc/elements/1.1/"
   xmlns:cc="http://creativecommons.org/ns#"
   xmlns:rdf="http://www.w3.org/1999/02/22-rdf-syntax-ns#"
   xmlns:svg="http://www.w3.org/2000/svg"
   xmlns="http://www.w3.org/2000/svg"
   version="1.1"
   width="215.59375"
   height="80"
   id="svg4101">
  <defs
     id="defs4103" />
  <metadata
     id="metadata4106">
    <rdf:RDF>
      <cc:Work
         rdf:about="">
        <dc:format>image/svg+xml</dc:format>
        <dc:type
           rdf:resource="http://purl.org/dc/dcmitype/StillImage" />
        <dc:title></dc:title>
      </cc:Work>
    </rdf:RDF>
  </metadata>
  <g
     transform="translate(0.593748,19.98698)"
     id="layer1">
    <g
       transform="translate(-24.999998,-752.36198)"
       id="g3993">
      <path
         d="m 164.28571,591.20148 a 12.767858,12.767858 0 1 1 -25.53571,0 12.767858,12.767858 0 1 1 25.53571,0 z"
         transform="matrix(1.1748252,0,0,1.1748244,-133.00699,77.804081)"
         id="path2993"
         style="fill:none;stroke:#000000;stroke-width:1.02142894;stroke-miterlimit:4;stroke-opacity:1;stroke-dasharray:none" />
      <path
         d="m 164.28571,591.20148 a 12.767858,12.767858 0 1 1 -25.53571,0 12.767858,12.767858 0 1 1 25.53571,0 z"
         transform="matrix(1.1748252,0,0,1.1748244,-98.006995,77.804111)"
         id="path2993-9"
         style="fill:none;stroke:#000000;stroke-width:1.02142894;stroke-miterlimit:4;stroke-opacity:1;stroke-dasharray:none" />
      <path
         d="m 164.28571,591.20148 a 12.767858,12.767858 0 1 1 -25.53571,0 12.767858,12.767858 0 1 1 25.53571,0 z"
         transform="matrix(1.1748252,0,0,1.1748244,-63.006997,77.804111)"
         id="path2993-9-9"
         style="fill:none;stroke:#000000;stroke-width:1.02142894;stroke-miterlimit:4.0999999;stroke-opacity:1;stroke-dasharray:none" />
      <path
         d="m 164.28571,591.20148 a 12.767858,12.767858 0 1 1 -25.53571,0"
         transform="matrix(-1.1748252,0,0,-1.1748244,328.00699,1466.9199)"
         id="path2993-9-9-3"
         style="fill:none;stroke:#000000;stroke-width:1.02142894;stroke-miterlimit:4;stroke-opacity:1;stroke-dasharray:none" />
      <path
         d="m 164.28571,591.20148 a 12.767858,12.767858 0 1 1 -25.53571,0 12.767858,12.767858 0 1 1 25.53571,0 z"
         transform="matrix(1.1748252,0,0,1.1748244,6.9930042,77.804101)"
         id="path2993-9-9-3-9"
         style="fill:none;stroke:#000000;stroke-width:1.02142894;stroke-miterlimit:4;stroke-opacity:1;stroke-dasharray:none" />
      <path
         d="m 151.51785,578.43362 a 12.767858,12.767858 0 0 1 0,25.53571"
         transform="matrix(1.1748252,0,0,1.1748244,26.993005,77.804101)"
         id="path2993-9-9-3-9-5"
         style="fill:none;stroke:#000000;stroke-width:1.02142894;stroke-miterlimit:4;stroke-opacity:1;stroke-dasharray:none" />
      <path
         d="m 151.51785,578.43362 a 12.767858,12.767858 0 0 1 0,25.53571"
         transform="matrix(-1.1748252,0,0,1.1748244,413.00699,77.804101)"
         id="path2993-9-9-3-9-5-7"
         style="fill:none;stroke:#000000;stroke-width:1.02142894;stroke-miterlimit:4;stroke-opacity:1;stroke-dasharray:none" />
      <path
         d="m 29.999995,737.36203 0,35"
         id="path3145"
         style="fill:none;stroke:#000000;stroke-width:1.20000005;stroke-linecap:butt;stroke-linejoin:miter;stroke-miterlimit:4;stroke-opacity:1;stroke-dasharray:none" />
      <path
         d="m 99.999998,807.36198 0,-34.99995"
         id="path3147"
         style="fill:none;stroke:#000000;stroke-width:1.20000005;stroke-linecap:butt;stroke-linejoin:miter;stroke-miterlimit:4.0999999;stroke-opacity:1;stroke-dasharray:none" />
      <path
         d="m 135,787.36202 0,-14.99999"
         id="path3149"
         style="fill:none;stroke:#000000;stroke-width:1.20000005;stroke-linecap:butt;stroke-linejoin:miter;stroke-miterlimit:4;stroke-opacity:1;stroke-dasharray:none" />
    </g>
  </g>
</svg>
